<svg xmlns="http://www.w3.org/2000/svg" viewBox="0 0 476.66 298.4"><defs><style>.cls-1{isolation:isolate;}.cls-2{mix-blend-mode:multiply;}.cls-3{fill:#fff;}</style></defs><g class="cls-1"><g id="レイヤー_1" data-name="レイヤー 1"><g class="cls-2"><path class="cls-3" d="M1198,689.56c-200.24,0-276.42-2.59-476.66-2.59V391.16H1198C1198,591.4,1198,489.32,1198,689.56Zm-78.91-91.92c-.41-.81-.79-1.51-1.12-2.23q-12.78-27.95-25.55-55.9-8.19-17.91-16.36-35.82a4.78,4.78,0,0,1-.84-2.49c.84-.39,1.63-.77,2.43-1.13l88.6-39.49c.66-.3,1.33-.57,2-.93a3.21,3.21,0,0,0,1.39-4.14,3.11,3.11,0,0,0-3.84-1.62,18.49,18.49,0,0,0-2.22.91l-117.76,52.51c-2.71,1.2-5.4,2.45-8.12,3.61a8.17,8.17,0,0,0-4.61,4.63,8.9,8.9,0,0,1-.44.87,12.93,12.93,0,0,1-1.38.44c-3,.56-6,1.22-9,1.62a51.27,51.27,0,0,1-16-.45,66.63,66.63,0,0,1-15.91-5.26c-3-1.41-6-2.95-9.13-4.28a72.55,72.55,0,0,0-7.42-2.75,20.62,20.62,0,0,0-13.87.65c-3.57,1.4-7.25,2.48-10.92,3.72-1.47-1-2.9-2-4.36-3a13.84,13.84,0,0,0-9.15-2.26,15.54,15.54,0,0,0-5.05,1.42A105,105,0,0,1,918,510.81a129.59,129.59,0,0,1-25.65,5c-4,.36-8,.38-12,.5a6.78,6.78,0,0,1-3.15-.36l-.6-1.25a7.68,7.68,0,0,0-3.86-3.78l-1.53-.69L785.72,472l-38.58-17.25a13.44,13.44,0,0,0-2.22-.87,3.08,3.08,0,0,0-3.71,1.9,3.16,3.16,0,0,0,1.48,3.91c.62.36,1.3.63,1.95.93l50.87,22.72,38.13,17.06a4.62,4.62,0,0,1,2.05,1.18,3.43,3.43,0,0,1-.14.71q-21.66,47.4-43.33,94.78a4.14,4.14,0,0,1-.56.67c-.7-.29-1.44-.56-2.15-.88L747.2,578a15.58,15.58,0,0,0-2.21-.91,3.15,3.15,0,0,0-3.75,1.85,3.12,3.12,0,0,0,1.17,3.81,11.89,11.89,0,0,0,1.71.86l46.48,20.77a18.41,18.41,0,0,0,1.77.75,3.1,3.1,0,0,0,3.76-1.32,13.2,13.2,0,0,0,.74-1.51c1.07-2.32,2.13-4.66,3.21-7,.23-.47.56-.9.86-1.38l1.9.78,18.79,8c4,1.69,7.94,3.42,11.94,5.06,2.13.87,3.54.3,4.56-1.73.78-1.58,1.46-3.2,2.22-4.8.23-.48.54-.93.85-1.46,1,.35,1.92.66,2.81,1a3.31,3.31,0,0,1,.67.52c-.2.65-.43,1.32-.62,2a18.25,18.25,0,0,0-.43,9.27c1.74,7.63,6.57,12.23,14.16,14l2.38.52A22,22,0,0,0,863,637.63a22.46,22.46,0,0,0,7.7,7.77,20.77,20.77,0,0,0,10.6,2.71A20.32,20.32,0,0,0,889,660.89,18.48,18.48,0,0,0,903.33,665,18.41,18.41,0,0,0,916,675.35c5.93,1.58,11.22,0,15.85-4,.5.31.91.55,1.3.81,1.8,1.2,3.57,2.44,5.4,3.59a19.58,19.58,0,0,0,7.39,2.69,23.45,23.45,0,0,0,8.6-.21c4.41-.9,8.36-2.7,11.31-6.29a2.28,2.28,0,0,1,.5-.38,43.08,43.08,0,0,0,4.49,1c7.76,1,15-4.72,17.5-10.32.28-.64.58-1.27.86-1.87,10.67,1.86,20.16-4,22.18-14.71H1013c1,0,2.08.1,3.12.06a16.31,16.31,0,0,0,15.3-19.63c-.17-.77-.29-1.54-.44-2.32.57-.37,1-.69,1.51-1,7.94-4.5,15.85-9,23.84-13.46,3.92-2.16,8-4.06,12-6.06a2.1,2.1,0,0,1,2-.35c.49,1,1,2.22,1.57,3.34a3.17,3.17,0,0,0,4.24,1.64c.83-.29,1.63-.67,2.44-1l29.38-12.5c.65-.27,1.32-.5,2.09-.78.31.56.61,1,.84,1.52,1,2.25,2.07,4.51,3.1,6.76a11.73,11.73,0,0,0,.74,1.51,3,3,0,0,0,3.49,1.46,14.06,14.06,0,0,0,2.23-.86l46.06-20.52c.52-.23,1-.44,1.53-.71a3.25,3.25,0,0,0,1.55-4.27,3.21,3.21,0,0,0-4.11-1.53c-.6.2-1.17.51-1.76.77l-42.1,18.77C1120.78,597,1120,597.26,1119.06,597.64ZM952.25,434.48h0v23.78a19.41,19.41,0,0,0,.06,2.16,3.17,3.17,0,0,0,3.15,3,3.26,3.26,0,0,0,3.15-3.05,19.46,19.46,0,0,0,0-2.16V425.07c0-5.05,0-10.09,0-15.14a9.57,9.57,0,0,0-.18-2.14,3.05,3.05,0,0,0-3.18-2.39,3,3,0,0,0-2.93,2.66,16,16,0,0,0-.11,2.4Q952.24,422.48,952.25,434.48Zm56.63,46.6a11.67,11.67,0,0,0,1.65-.72,7.38,7.38,0,0,0,1.27-1.11l14-13.14,21.38-20.05a14.54,14.54,0,0,0,1.52-1.52,3.08,3.08,0,0,0-.17-4.16,3.2,3.2,0,0,0-4.17-.32,17.34,17.34,0,0,0-1.44,1.28l-8.24,7.71-27.16,25.48a12.25,12.25,0,0,0-1.64,1.74,2.85,2.85,0,0,0-.11,3.18A3.23,3.23,0,0,0,1008.88,481.08ZM905.45,477.8c.1-1.17-.76-2-1.65-2.84l-36.28-34a8.17,8.17,0,0,0-1.29-1.06,3.14,3.14,0,0,0-4.18,4.52,10.76,10.76,0,0,0,1.33,1.37l35.92,33.67a8.79,8.79,0,0,0,1.28,1.09,3.08,3.08,0,0,0,3.2.17A3,3,0,0,0,905.45,477.8Z" transform="translate(-721.31 -391.16)"/><path d="M1119.06,597.64c.91-.38,1.72-.69,2.52-1l42.1-18.77c.59-.26,1.16-.57,1.76-.77a3.21,3.21,0,0,1,4.11,1.53,3.25,3.25,0,0,1-1.55,4.27c-.49.27-1,.48-1.53.71l-46.06,20.52a14.06,14.06,0,0,1-2.23.86,3,3,0,0,1-3.49-1.46A11.73,11.73,0,0,1,1114,602c-1-2.25-2.06-4.51-3.1-6.76-.23-.5-.53-1-.84-1.52-.77.28-1.44.51-2.09.78L1078.54,607c-.81.35-1.61.73-2.44,1a3.17,3.17,0,0,1-4.24-1.64c-.6-1.12-1.08-2.3-1.57-3.34a2.1,2.1,0,0,0-2,.35c-4,2-8.08,3.9-12,6.06-8,4.41-15.9,9-23.84,13.46-.48.27-.94.59-1.51,1,.15.78.27,1.55.44,2.32a16.31,16.31,0,0,1-15.3,19.63c-1,0-2.08,0-3.12-.06h-1.63c-2,10.69-11.51,16.57-22.18,14.71-.28.6-.58,1.23-.86,1.87-2.49,5.6-9.74,11.27-17.5,10.32a43.08,43.08,0,0,1-4.49-1,2.28,2.28,0,0,0-.5.38c-3,3.59-6.9,5.39-11.31,6.29a23.45,23.45,0,0,1-8.6.21,19.58,19.58,0,0,1-7.39-2.69c-1.83-1.15-3.6-2.39-5.4-3.59-.39-.26-.8-.5-1.3-.81-4.63,4-9.92,5.53-15.85,4A18.41,18.41,0,0,1,903.33,665,18.48,18.48,0,0,1,889,660.89a20.32,20.32,0,0,1-7.64-12.78,20.77,20.77,0,0,1-10.6-2.71,22.46,22.46,0,0,1-7.7-7.77A22,22,0,0,1,860.17,627l-2.38-.52c-7.59-1.77-12.42-6.37-14.16-14a18.25,18.25,0,0,1,.43-9.27c.19-.67.42-1.34.62-2a3.31,3.31,0,0,0-.67-.52c-.89-.33-1.8-.64-2.81-1-.31.53-.62,1-.85,1.46-.76,1.6-1.44,3.22-2.22,4.8-1,2-2.43,2.6-4.56,1.73-4-1.64-8-3.37-11.94-5.06l-18.79-8-1.9-.78c-.3.48-.63.91-.86,1.38-1.08,2.32-2.14,4.66-3.21,7a13.2,13.2,0,0,1-.74,1.51,3.1,3.1,0,0,1-3.76,1.32,18.41,18.41,0,0,1-1.77-.75l-46.48-20.77a11.89,11.89,0,0,1-1.71-.86,3.12,3.12,0,0,1-1.17-3.81,3.15,3.15,0,0,1,3.75-1.85,15.58,15.58,0,0,1,2.21.91l42.31,18.91c.71.32,1.45.59,2.15.88a4.14,4.14,0,0,0,.56-.67q21.67-47.39,43.33-94.78a3.43,3.43,0,0,0,.14-.71,4.62,4.62,0,0,0-2.05-1.18l-38.13-17.06-50.87-22.72c-.65-.3-1.33-.57-1.95-.93a3.16,3.16,0,0,1-1.48-3.91,3.08,3.08,0,0,1,3.71-1.9,13.44,13.44,0,0,1,2.22.87L785.72,472l85.5,38.22,1.53.69a7.68,7.68,0,0,1,3.86,3.78l.6,1.25a6.78,6.78,0,0,0,3.15.36c4-.12,8-.14,12-.5a129.59,129.59,0,0,0,25.65-5,105,105,0,0,0,12.39-4.55,15.54,15.54,0,0,1,5.05-1.42,13.84,13.84,0,0,1,9.15,2.26c1.46,1,2.89,2,4.36,3,3.67-1.24,7.35-2.32,10.92-3.72a20.62,20.62,0,0,1,13.87-.65,72.55,72.55,0,0,1,7.42,2.75c3.08,1.33,6.08,2.87,9.13,4.28A66.63,66.63,0,0,0,1006.2,518a51.27,51.27,0,0,0,16,.45c3-.4,6-1.06,9-1.62a12.93,12.93,0,0,0,1.38-.44,8.9,8.9,0,0,0,.44-.87,8.17,8.17,0,0,1,4.61-4.63c2.72-1.16,5.41-2.41,8.12-3.61L1163.5,454.8a18.49,18.49,0,0,1,2.22-.91,3.11,3.11,0,0,1,3.84,1.62,3.21,3.21,0,0,1-1.39,4.14c-.62.36-1.29.63-2,.93l-88.6,39.49c-.8.36-1.59.74-2.43,1.13a4.78,4.78,0,0,0,.84,2.49q8.16,17.91,16.36,35.82,12.78,27.94,25.55,55.9C1118.27,596.13,1118.65,596.83,1119.06,597.64Zm-157.84,69.5c-.53-.58-1.05-1.17-1.61-1.72q-6.74-6.69-13.48-13.35a10.28,10.28,0,0,1-1.16-1.22,3.13,3.13,0,0,1,.22-4.16,3.06,3.06,0,0,1,4.14-.31,13.42,13.42,0,0,1,1.41,1.31c5.57,5.52,11.16,11,16.7,16.59a6.79,6.79,0,0,0,6.81,1.94A12.28,12.28,0,0,0,982,660.6a9.11,9.11,0,0,0,.7-1.52,2.53,2.53,0,0,0-.74-3.23,8.47,8.47,0,0,1-.83-.86l-25.23-26.72a14.54,14.54,0,0,1-1.42-1.63,2.86,2.86,0,0,1-.18-3.17,3.08,3.08,0,0,1,4.7-1.06,15.07,15.07,0,0,1,1.7,1.69q13,13.7,25.89,27.42a8.71,8.71,0,0,0,4.21,2.61,11.94,11.94,0,0,0,13-5.86,9.76,9.76,0,0,0,.73-2c.49-2,.39-3.83-1.34-5.24a1.45,1.45,0,0,1-.17-.18l-31.61-34.57a15.66,15.66,0,0,1-1.25-1.45,3.2,3.2,0,0,1,.26-4.18,3.12,3.12,0,0,1,4.35-.06,17,17,0,0,1,1.5,1.56c10.48,11.46,21,22.9,31.4,34.43a8.2,8.2,0,0,0,5.13,2.77c4.17.59,7.85-.4,10.49-3.86s2.74-7.25.75-11.06a75.55,75.55,0,0,0-3.79-6.68c-2.24-3.41-4.56-6.78-7-10a285.93,285.93,0,0,0-29.07-32.27A172.64,172.64,0,0,0,966,559.8c-2.65-1.93-5.45-3.65-8.24-5.37A17.7,17.7,0,0,0,946,552c-.55.06-1.11.14-1.66.22a65.2,65.2,0,0,0-10.51,2.46c-6.24,2-12.46,4.1-18.68,6.18a113.37,113.37,0,0,1-15.22,4.35,20.73,20.73,0,0,1-8.34.22,8.06,8.06,0,0,1-6.51-7.61,12.05,12.05,0,0,1,1.21-5.82,27.83,27.83,0,0,1,3.66-5.62,63.46,63.46,0,0,1,9.33-9,147.39,147.39,0,0,1,20-13.32A216.87,216.87,0,0,1,939.42,514c.71-.31,1.56-.42,2-1.24a7,7,0,0,0-6.52-1.42,13.6,13.6,0,0,0-2,.74,132.2,132.2,0,0,1-54.52,10.5h-2.29l-31.64,69.49c-.23.49-.39,1-.64,1.66.83.35,1.54.67,2.28,1s1.49.48,2.19.71c.65-.48,1.16-.86,1.68-1.23a17.28,17.28,0,0,1,4.71-2.34,20,20,0,0,1,23.53,9.23c.34.62.71,1.22,1.1,1.9.62-.24,1.14-.43,1.65-.64A19.54,19.54,0,0,1,891.08,601c7.2.88,13,6.23,14,12.59a9.53,9.53,0,0,0,.53,1.52c.69-.22,1.22-.4,1.75-.55a14.14,14.14,0,0,1,15.47,5,16.9,16.9,0,0,1,3.79,11.13c0,.95,0,1.9,0,2.79.11.1.16.17.23.19.31.08.62.16.93.22a11.92,11.92,0,0,1,7.58,5.11,19.24,19.24,0,0,1,2.12,3.75,24.93,24.93,0,0,1-.58,21.15,5.24,5.24,0,0,0-.92,2.5,43.12,43.12,0,0,0,5.68,3.93c5.67,3.29,11.33,2.75,16.91-.25A5.54,5.54,0,0,0,961.22,667.14Zm66.84-49.23c8.77-4.89,17.33-9.74,26-14.46,3.79-2.08,7.71-3.9,11.57-5.84.43-.21.86-.42,1.28-.65a.44.44,0,0,0,.16-.17,4.34,4.34,0,0,0,.16-.41q-16.45-36.17-33-72.59a7,7,0,0,0-.57-.86l-1.41.24c-3.07.55-6.12,1.24-9.21,1.62a59.08,59.08,0,0,1-17.46-.43,69.51,69.51,0,0,1-16.66-5.28c-3.35-1.52-6.64-3.18-10-4.66a62.7,62.7,0,0,0-6.71-2.58,13.58,13.58,0,0,0-9.85.48,13.9,13.9,0,0,1-1.81.65,184.26,184.26,0,0,0-31,12.74,156.53,156.53,0,0,0-25,15.69,65.16,65.16,0,0,0-8.67,7.93,23.13,23.13,0,0,0-3.48,4.87,6.45,6.45,0,0,0-.88,3,1.88,1.88,0,0,0,1.59,2.09,7.36,7.36,0,0,0,2.6.18,56.84,56.84,0,0,0,5.66-1c5.69-1.36,11.19-3.34,16.71-5.24,6.06-2.08,12.1-4.19,18.31-5.76a51.25,51.25,0,0,1,13-1.84,20.61,20.61,0,0,1,8.6,1.9,57.25,57.25,0,0,1,7.89,4.55,133.69,133.69,0,0,1,12.36,9.53,297.26,297.26,0,0,1,34.41,35.12A160,160,0,0,1,1027.41,617,9.22,9.22,0,0,0,1028.06,617.91Zm41.08-114c-.61.23-.92.32-1.21.45l-27.18,12.1a10.64,10.64,0,0,0-1.07.53,1.37,1.37,0,0,0-.67,1.65,19,19,0,0,0,.83,2L1063.18,572q6.16,13.54,12.34,27.08c.29.62.36,1.43,1.18,1.7.16,0,.32-.08.47-.14q14.57-6.18,29.14-12.39a9,9,0,0,0,1-.68ZM833.41,600.51a6,6,0,0,0,1.27-2.29q6.2-13.54,12.35-27.09Q858.66,545.57,870.3,520c1.11-2.43,1-2.77-1.39-3.83q-12.58-5.64-25.2-11.26c-.57-.26-1.17-.44-1.84-.69a11.87,11.87,0,0,0-.67,1.06c-4.11,8.29-36.86,80.42-37.52,82.6a2.75,2.75,0,0,0,.53.44q14.25,6.07,28.5,12.12A2.25,2.25,0,0,0,833.41,600.51Zm66.94,58.35a4.8,4.8,0,0,0,4.61-2.44c4.32-6.65,8.82-13.17,13.23-19.75a14,14,0,0,0,1.27-2.3,10.74,10.74,0,0,0-2.34-11.76,7.5,7.5,0,0,0-8.83-1.64,15.21,15.21,0,0,0-3.58,2.36,26.6,26.6,0,0,0-3.39,3.72c-4.17,5.47-8.24,11-12.46,16.47a5.08,5.08,0,0,0-.94,4.9,14.12,14.12,0,0,0,9.39,9.82A21.83,21.83,0,0,0,900.35,658.86Zm-11.73-51.71c-3.71.18-7.16,1.19-9.69,4-3.84,4.3-7.48,8.77-11.23,13.14a4,4,0,0,0-1,2.38,11.22,11.22,0,0,0,0,2.39A14.66,14.66,0,0,0,875,640.44a10.37,10.37,0,0,0,6.06,1.07,3.2,3.2,0,0,0,2.4-1.34c4.3-5.78,8.66-11.51,12.94-17.3a15.05,15.05,0,0,0,1.92-3.58,8.4,8.4,0,0,0-4-10.67A11.26,11.26,0,0,0,888.62,607.15Zm44.59,46a19.79,19.79,0,0,0-1.89-8.79,9.73,9.73,0,0,0-2.48-3.21,4.16,4.16,0,0,0-5.32-.36,6.21,6.21,0,0,0-1.6,1.74c-3.91,5.76-7.78,11.54-11.67,17.33-1.36,2-1.39,2.51,0,4.48a11.77,11.77,0,0,0,2,2.1,13,13,0,0,0,6.46,3,9.14,9.14,0,0,0,8.4-2.52A20.24,20.24,0,0,0,933.21,653.15Zm-83.6-44.28a11.35,11.35,0,0,0,4.08,8.84,13.21,13.21,0,0,0,7.24,2.87,2.59,2.59,0,0,0,2.5-1q4.76-5.71,9.62-11.33a2.1,2.1,0,0,0,.39-2.4,13.71,13.71,0,0,0-13.91-8.56,11.71,11.71,0,0,0-6.57,2.65,5.32,5.32,0,0,0-1.4,1.6A16,16,0,0,0,849.61,608.87Z" transform="translate(-721.31 -391.16)"/><path d="M952.25,434.48q0-12,0-24a16,16,0,0,1,.11-2.4,3,3,0,0,1,2.93-2.66,3.05,3.05,0,0,1,3.18,2.39,9.57,9.57,0,0,1,.18,2.14c0,5.05,0,10.09,0,15.14v33.15a19.46,19.46,0,0,1,0,2.16,3.26,3.26,0,0,1-3.15,3.05,3.17,3.17,0,0,1-3.15-3,19.41,19.41,0,0,1-.06-2.16V434.48Z" transform="translate(-721.31 -391.16)"/><path d="M1008.88,481.08a3.23,3.23,0,0,1-3.09-1.63,2.85,2.85,0,0,1,.11-3.18,12.25,12.25,0,0,1,1.64-1.74l27.16-25.48,8.24-7.71a17.34,17.34,0,0,1,1.44-1.28,3.2,3.2,0,0,1,4.17.32,3.08,3.08,0,0,1,.17,4.16,14.54,14.54,0,0,1-1.52,1.52l-21.38,20.05-14,13.14a7.38,7.38,0,0,1-1.27,1.11A11.67,11.67,0,0,1,1008.88,481.08Z" transform="translate(-721.31 -391.16)"/><path d="M905.45,477.8a3,3,0,0,1-1.67,2.92,3.08,3.08,0,0,1-3.2-.17,8.79,8.79,0,0,1-1.28-1.09l-35.92-33.67a10.76,10.76,0,0,1-1.33-1.37,3.14,3.14,0,0,1,4.18-4.52,8.17,8.17,0,0,1,1.29,1.06l36.28,34C904.69,475.79,905.55,476.63,905.45,477.8Z" transform="translate(-721.31 -391.16)"/><path class="cls-3" d="M961.22,667.14a5.54,5.54,0,0,1-2.64,2.86c-5.58,3-11.24,3.54-16.91.25a43.12,43.12,0,0,1-5.68-3.93,5.24,5.24,0,0,1,.92-2.5,24.93,24.93,0,0,0,.58-21.15,19.24,19.24,0,0,0-2.12-3.75,11.92,11.92,0,0,0-7.58-5.11c-.31-.06-.62-.14-.93-.22-.07,0-.12-.09-.23-.19,0-.89,0-1.84,0-2.79a16.9,16.9,0,0,0-3.79-11.13,14.14,14.14,0,0,0-15.47-5c-.53.15-1.06.33-1.75.55a9.53,9.53,0,0,1-.53-1.52c-1-6.36-6.81-11.71-14-12.59A19.54,19.54,0,0,0,881,602.33c-.51.21-1,.4-1.65.64-.39-.68-.76-1.28-1.1-1.9a20,20,0,0,0-23.53-9.23,17.28,17.28,0,0,0-4.71,2.34c-.52.37-1,.75-1.68,1.23-.7-.23-1.46-.44-2.19-.71s-1.45-.6-2.28-1c.25-.65.41-1.17.64-1.66l31.64-69.49h2.29a132.2,132.2,0,0,0,54.52-10.5,13.6,13.6,0,0,1,2-.74,7,7,0,0,1,6.52,1.42c-.48.82-1.33.93-2,1.24a216.87,216.87,0,0,0-20.19,10.06,147.39,147.39,0,0,0-20,13.32,63.46,63.46,0,0,0-9.33,9,27.83,27.83,0,0,0-3.66,5.62,12.05,12.05,0,0,0-1.21,5.82,8.06,8.06,0,0,0,6.51,7.61,20.73,20.73,0,0,0,8.34-.22,113.37,113.37,0,0,0,15.22-4.35c6.22-2.08,12.44-4.17,18.68-6.18a65.2,65.2,0,0,1,10.51-2.46c.55-.08,1.11-.16,1.66-.22a17.7,17.7,0,0,1,11.77,2.42c2.79,1.72,5.59,3.44,8.24,5.37a172.64,172.64,0,0,1,18.21,15.64,285.93,285.93,0,0,1,29.07,32.27c2.48,3.24,4.8,6.61,7,10a75.55,75.55,0,0,1,3.79,6.68c2,3.81,1.9,7.59-.75,11.06s-6.32,4.45-10.49,3.86a8.2,8.2,0,0,1-5.13-2.77c-10.41-11.53-20.92-23-31.4-34.43a17,17,0,0,0-1.5-1.56,3.12,3.12,0,0,0-4.35.06,3.2,3.2,0,0,0-.26,4.18,15.66,15.66,0,0,0,1.25,1.45l31.61,34.57a1.45,1.45,0,0,0,.17.18c1.73,1.41,1.83,3.26,1.34,5.24a9.76,9.76,0,0,1-.73,2,11.94,11.94,0,0,1-13,5.86,8.71,8.71,0,0,1-4.21-2.61q-12.9-13.74-25.89-27.42a15.07,15.07,0,0,0-1.7-1.69,3.08,3.08,0,0,0-4.7,1.06,2.86,2.86,0,0,0,.18,3.17,14.54,14.54,0,0,0,1.42,1.63L981.16,655a8.47,8.47,0,0,0,.83.86,2.53,2.53,0,0,1,.74,3.23,9.11,9.11,0,0,1-.7,1.52,12.28,12.28,0,0,1-7.78,5.62,6.79,6.79,0,0,1-6.81-1.94c-5.54-5.56-11.13-11.07-16.7-16.59a13.42,13.42,0,0,0-1.41-1.31,3.06,3.06,0,0,0-4.14.31,3.13,3.13,0,0,0-.22,4.16,10.28,10.28,0,0,0,1.16,1.22q6.74,6.67,13.48,13.35C960.17,666,960.69,666.56,961.22,667.14Z" transform="translate(-721.31 -391.16)"/><path class="cls-3" d="M1028.06,617.91a9.22,9.22,0,0,1-.65-.87,160,160,0,0,0-14.82-20.37,297.26,297.26,0,0,0-34.41-35.12A133.69,133.69,0,0,0,965.82,552a57.25,57.25,0,0,0-7.89-4.55,20.61,20.61,0,0,0-8.6-1.9,51.25,51.25,0,0,0-13,1.84C930.08,549,924,551.09,918,553.17c-5.52,1.9-11,3.88-16.71,5.24a56.84,56.84,0,0,1-5.66,1,7.36,7.36,0,0,1-2.6-.18,1.88,1.88,0,0,1-1.59-2.09,6.45,6.45,0,0,1,.88-3,23.13,23.13,0,0,1,3.48-4.87,65.16,65.16,0,0,1,8.67-7.93,156.53,156.53,0,0,1,25-15.69,184.26,184.26,0,0,1,31-12.74,13.9,13.9,0,0,0,1.81-.65,13.58,13.58,0,0,1,9.85-.48,62.7,62.7,0,0,1,6.71,2.58c3.37,1.48,6.66,3.14,10,4.66a69.51,69.51,0,0,0,16.66,5.28,59.08,59.08,0,0,0,17.46.43c3.09-.38,6.14-1.07,9.21-1.62l1.41-.24a7,7,0,0,1,.57.86q16.56,36.36,33,72.59a4.34,4.34,0,0,1-.16.41.44.44,0,0,1-.16.17c-.42.23-.85.44-1.28.65-3.86,1.94-7.78,3.76-11.57,5.84C1045.39,608.17,1036.83,613,1028.06,617.91Z" transform="translate(-721.31 -391.16)"/><path class="cls-3" d="M1069.14,503.94l38.21,83.61a9,9,0,0,1-1,.68q-14.57,6.21-29.14,12.39c-.15.06-.31.09-.47.14-.82-.27-.89-1.08-1.18-1.7q-6.18-13.53-12.34-27.08l-23.34-51.32a19,19,0,0,1-.83-2,1.37,1.37,0,0,1,.67-1.65,10.64,10.64,0,0,1,1.07-.53l27.18-12.1C1068.22,504.26,1068.53,504.17,1069.14,503.94Z" transform="translate(-721.31 -391.16)"/><path class="cls-3" d="M833.41,600.51a2.25,2.25,0,0,1-.7-.07q-14.26-6-28.5-12.12a2.75,2.75,0,0,1-.53-.44c.66-2.18,33.41-74.31,37.52-82.6a11.87,11.87,0,0,1,.67-1.06c.67.25,1.27.43,1.84.69q12.6,5.61,25.2,11.26c2.37,1.06,2.5,1.4,1.39,3.83Q858.68,545.57,847,571.13q-6.18,13.54-12.35,27.09A6,6,0,0,1,833.41,600.51Z" transform="translate(-721.31 -391.16)"/><path class="cls-3" d="M900.35,658.86a21.83,21.83,0,0,1-3-.62,14.12,14.12,0,0,1-9.39-9.82,5.08,5.08,0,0,1,.94-4.9c4.22-5.44,8.29-11,12.46-16.47a26.6,26.6,0,0,1,3.39-3.72,15.21,15.21,0,0,1,3.58-2.36,7.5,7.5,0,0,1,8.83,1.64,10.74,10.74,0,0,1,2.34,11.76,14,14,0,0,1-1.27,2.3c-4.41,6.58-8.91,13.1-13.23,19.75A4.8,4.8,0,0,1,900.35,658.86Z" transform="translate(-721.31 -391.16)"/><path class="cls-3" d="M888.62,607.15a11.26,11.26,0,0,1,5.76,1.47,8.4,8.4,0,0,1,4,10.67,15.05,15.05,0,0,1-1.92,3.58c-4.28,5.79-8.64,11.52-12.94,17.3a3.2,3.2,0,0,1-2.4,1.34,10.37,10.37,0,0,1-6.06-1.07,14.66,14.66,0,0,1-8.29-11.35,11.22,11.22,0,0,1,0-2.39,4,4,0,0,1,1-2.38c3.75-4.37,7.39-8.84,11.23-13.14C881.46,608.34,884.91,607.33,888.62,607.15Z" transform="translate(-721.31 -391.16)"/><path class="cls-3" d="M933.21,653.15a20.24,20.24,0,0,1-6.12,13.75,9.14,9.14,0,0,1-8.4,2.52,13,13,0,0,1-6.46-3,11.77,11.77,0,0,1-2-2.1c-1.42-2-1.39-2.45,0-4.48,3.89-5.79,7.76-11.57,11.67-17.33a6.21,6.21,0,0,1,1.6-1.74,4.16,4.16,0,0,1,5.32.36,9.73,9.73,0,0,1,2.48,3.21A19.79,19.79,0,0,1,933.21,653.15Z" transform="translate(-721.31 -391.16)"/><path class="cls-3" d="M849.61,608.87a16,16,0,0,1,1.95-7.35,5.32,5.32,0,0,1,1.4-1.6,11.71,11.71,0,0,1,6.57-2.65,13.71,13.71,0,0,1,13.91,8.56,2.1,2.1,0,0,1-.39,2.4q-4.86,5.63-9.62,11.33a2.59,2.59,0,0,1-2.5,1,13.21,13.21,0,0,1-7.24-2.87A11.35,11.35,0,0,1,849.61,608.87Z" transform="translate(-721.31 -391.16)"/></g></g></g></svg>